<mxfile host="Electron" modified="2023-06-03T05:15:18.518Z" agent="Mozilla/5.0 (Windows NT 10.0; Win64; x64) AppleWebKit/537.36 (KHTML, like Gecko) draw.io/21.2.1 Chrome/112.0.5615.87 Electron/24.1.2 Safari/537.36" etag="pcvKPK1pfWsZpavhaN_e" version="21.2.1" type="device">
  <diagram name="Page-1" id="ehd3ORn-TUZwhDRNedSB">
    <mxGraphModel dx="1421" dy="832" grid="1" gridSize="10" guides="1" tooltips="1" connect="1" arrows="1" fold="1" page="1" pageScale="1" pageWidth="827" pageHeight="1169" math="0" shadow="0">
      <root>
        <mxCell id="0" />
        <mxCell id="1" parent="0" />
        <mxCell id="8ehIaY2zE8x0espiH6N3-1" value="" style="whiteSpace=wrap;html=1;aspect=fixed;" parent="1" vertex="1">
          <mxGeometry x="480" y="490" width="84" height="84" as="geometry" />
        </mxCell>
        <mxCell id="8ehIaY2zE8x0espiH6N3-2" value="" style="whiteSpace=wrap;html=1;aspect=fixed;" parent="1" vertex="1">
          <mxGeometry x="390" y="230" width="84" height="84" as="geometry" />
        </mxCell>
        <mxCell id="gUEoalpLLiEIB1-Z7VNQ-1" value="Assets" style="childLayout=tableLayout;recursiveResize=0;strokeColor=#98bf21;fillColor=#A7C942;shadow=1;" vertex="1" parent="1">
          <mxGeometry x="20" y="360" width="280" height="150" as="geometry" />
        </mxCell>
        <mxCell id="gUEoalpLLiEIB1-Z7VNQ-2" style="shape=tableRow;horizontal=0;startSize=0;swimlaneHead=0;swimlaneBody=0;top=0;left=0;bottom=0;right=0;dropTarget=0;collapsible=0;recursiveResize=0;expand=0;fontStyle=0;strokeColor=inherit;fillColor=#ffffff;" vertex="1" parent="gUEoalpLLiEIB1-Z7VNQ-1">
          <mxGeometry width="280" height="31" as="geometry" />
        </mxCell>
        <mxCell id="gUEoalpLLiEIB1-Z7VNQ-3" value="Title 1" style="connectable=0;recursiveResize=0;strokeColor=inherit;fillColor=#A7C942;align=center;fontStyle=1;fontColor=#FFFFFF;html=1;" vertex="1" parent="gUEoalpLLiEIB1-Z7VNQ-2">
          <mxGeometry width="93" height="31" as="geometry">
            <mxRectangle width="93" height="31" as="alternateBounds" />
          </mxGeometry>
        </mxCell>
        <mxCell id="gUEoalpLLiEIB1-Z7VNQ-4" value="Title 2" style="connectable=0;recursiveResize=0;strokeColor=inherit;fillColor=#A7C942;align=center;fontStyle=1;fontColor=#FFFFFF;html=1;" vertex="1" parent="gUEoalpLLiEIB1-Z7VNQ-2">
          <mxGeometry x="93" width="94" height="31" as="geometry">
            <mxRectangle width="94" height="31" as="alternateBounds" />
          </mxGeometry>
        </mxCell>
        <mxCell id="gUEoalpLLiEIB1-Z7VNQ-5" value="Title 3" style="connectable=0;recursiveResize=0;strokeColor=inherit;fillColor=#A7C942;align=center;fontStyle=1;fontColor=#FFFFFF;html=1;" vertex="1" parent="gUEoalpLLiEIB1-Z7VNQ-2">
          <mxGeometry x="187" width="93" height="31" as="geometry">
            <mxRectangle width="93" height="31" as="alternateBounds" />
          </mxGeometry>
        </mxCell>
        <mxCell id="gUEoalpLLiEIB1-Z7VNQ-6" value="" style="shape=tableRow;horizontal=0;startSize=0;swimlaneHead=0;swimlaneBody=0;top=0;left=0;bottom=0;right=0;dropTarget=0;collapsible=0;recursiveResize=0;expand=0;fontStyle=0;strokeColor=inherit;fillColor=#ffffff;" vertex="1" parent="gUEoalpLLiEIB1-Z7VNQ-1">
          <mxGeometry y="31" width="280" height="30" as="geometry" />
        </mxCell>
        <mxCell id="gUEoalpLLiEIB1-Z7VNQ-7" value="Value 1" style="connectable=0;recursiveResize=0;strokeColor=inherit;fillColor=inherit;align=center;whiteSpace=wrap;html=1;" vertex="1" parent="gUEoalpLLiEIB1-Z7VNQ-6">
          <mxGeometry width="93" height="30" as="geometry">
            <mxRectangle width="93" height="30" as="alternateBounds" />
          </mxGeometry>
        </mxCell>
        <mxCell id="gUEoalpLLiEIB1-Z7VNQ-8" value="Value 2" style="connectable=0;recursiveResize=0;strokeColor=inherit;fillColor=inherit;align=center;whiteSpace=wrap;html=1;" vertex="1" parent="gUEoalpLLiEIB1-Z7VNQ-6">
          <mxGeometry x="93" width="94" height="30" as="geometry">
            <mxRectangle width="94" height="30" as="alternateBounds" />
          </mxGeometry>
        </mxCell>
        <mxCell id="gUEoalpLLiEIB1-Z7VNQ-9" value="Value 3" style="connectable=0;recursiveResize=0;strokeColor=inherit;fillColor=inherit;align=center;whiteSpace=wrap;html=1;" vertex="1" parent="gUEoalpLLiEIB1-Z7VNQ-6">
          <mxGeometry x="187" width="93" height="30" as="geometry">
            <mxRectangle width="93" height="30" as="alternateBounds" />
          </mxGeometry>
        </mxCell>
        <mxCell id="gUEoalpLLiEIB1-Z7VNQ-10" value="" style="shape=tableRow;horizontal=0;startSize=0;swimlaneHead=0;swimlaneBody=0;top=0;left=0;bottom=0;right=0;dropTarget=0;collapsible=0;recursiveResize=0;expand=0;fontStyle=1;strokeColor=inherit;fillColor=#EAF2D3;" vertex="1" parent="gUEoalpLLiEIB1-Z7VNQ-1">
          <mxGeometry y="61" width="280" height="29" as="geometry" />
        </mxCell>
        <mxCell id="gUEoalpLLiEIB1-Z7VNQ-11" value="Value 4" style="connectable=0;recursiveResize=0;strokeColor=inherit;fillColor=inherit;whiteSpace=wrap;html=1;" vertex="1" parent="gUEoalpLLiEIB1-Z7VNQ-10">
          <mxGeometry width="93" height="29" as="geometry">
            <mxRectangle width="93" height="29" as="alternateBounds" />
          </mxGeometry>
        </mxCell>
        <mxCell id="gUEoalpLLiEIB1-Z7VNQ-12" value="Value 5" style="connectable=0;recursiveResize=0;strokeColor=inherit;fillColor=inherit;whiteSpace=wrap;html=1;" vertex="1" parent="gUEoalpLLiEIB1-Z7VNQ-10">
          <mxGeometry x="93" width="94" height="29" as="geometry">
            <mxRectangle width="94" height="29" as="alternateBounds" />
          </mxGeometry>
        </mxCell>
        <mxCell id="gUEoalpLLiEIB1-Z7VNQ-13" value="Value 6" style="connectable=0;recursiveResize=0;strokeColor=inherit;fillColor=inherit;whiteSpace=wrap;html=1;" vertex="1" parent="gUEoalpLLiEIB1-Z7VNQ-10">
          <mxGeometry x="187" width="93" height="29" as="geometry">
            <mxRectangle width="93" height="29" as="alternateBounds" />
          </mxGeometry>
        </mxCell>
        <mxCell id="gUEoalpLLiEIB1-Z7VNQ-14" value="" style="shape=tableRow;horizontal=0;startSize=0;swimlaneHead=0;swimlaneBody=0;top=0;left=0;bottom=0;right=0;dropTarget=0;collapsible=0;recursiveResize=0;expand=0;fontStyle=0;strokeColor=inherit;fillColor=#ffffff;" vertex="1" parent="gUEoalpLLiEIB1-Z7VNQ-1">
          <mxGeometry y="90" width="280" height="31" as="geometry" />
        </mxCell>
        <mxCell id="gUEoalpLLiEIB1-Z7VNQ-15" value="Value 7" style="connectable=0;recursiveResize=0;strokeColor=inherit;fillColor=inherit;fontStyle=0;align=center;whiteSpace=wrap;html=1;" vertex="1" parent="gUEoalpLLiEIB1-Z7VNQ-14">
          <mxGeometry width="93" height="31" as="geometry">
            <mxRectangle width="93" height="31" as="alternateBounds" />
          </mxGeometry>
        </mxCell>
        <mxCell id="gUEoalpLLiEIB1-Z7VNQ-16" value="Value 8" style="connectable=0;recursiveResize=0;strokeColor=inherit;fillColor=inherit;fontStyle=0;align=center;whiteSpace=wrap;html=1;" vertex="1" parent="gUEoalpLLiEIB1-Z7VNQ-14">
          <mxGeometry x="93" width="94" height="31" as="geometry">
            <mxRectangle width="94" height="31" as="alternateBounds" />
          </mxGeometry>
        </mxCell>
        <mxCell id="gUEoalpLLiEIB1-Z7VNQ-17" value="Value 9" style="connectable=0;recursiveResize=0;strokeColor=inherit;fillColor=inherit;fontStyle=0;align=center;whiteSpace=wrap;html=1;" vertex="1" parent="gUEoalpLLiEIB1-Z7VNQ-14">
          <mxGeometry x="187" width="93" height="31" as="geometry">
            <mxRectangle width="93" height="31" as="alternateBounds" />
          </mxGeometry>
        </mxCell>
        <mxCell id="gUEoalpLLiEIB1-Z7VNQ-18" value="" style="shape=tableRow;horizontal=0;startSize=0;swimlaneHead=0;swimlaneBody=0;top=0;left=0;bottom=0;right=0;dropTarget=0;collapsible=0;recursiveResize=0;expand=0;fontStyle=1;strokeColor=inherit;fillColor=#EAF2D3;" vertex="1" parent="gUEoalpLLiEIB1-Z7VNQ-1">
          <mxGeometry y="121" width="280" height="29" as="geometry" />
        </mxCell>
        <mxCell id="gUEoalpLLiEIB1-Z7VNQ-19" value="Value 10" style="connectable=0;recursiveResize=0;strokeColor=inherit;fillColor=inherit;whiteSpace=wrap;html=1;" vertex="1" parent="gUEoalpLLiEIB1-Z7VNQ-18">
          <mxGeometry width="93" height="29" as="geometry">
            <mxRectangle width="93" height="29" as="alternateBounds" />
          </mxGeometry>
        </mxCell>
        <mxCell id="gUEoalpLLiEIB1-Z7VNQ-20" value="Value 11" style="connectable=0;recursiveResize=0;strokeColor=inherit;fillColor=inherit;whiteSpace=wrap;html=1;" vertex="1" parent="gUEoalpLLiEIB1-Z7VNQ-18">
          <mxGeometry x="93" width="94" height="29" as="geometry">
            <mxRectangle width="94" height="29" as="alternateBounds" />
          </mxGeometry>
        </mxCell>
        <mxCell id="gUEoalpLLiEIB1-Z7VNQ-21" value="Value 12" style="connectable=0;recursiveResize=0;strokeColor=inherit;fillColor=inherit;whiteSpace=wrap;html=1;" vertex="1" parent="gUEoalpLLiEIB1-Z7VNQ-18">
          <mxGeometry x="187" width="93" height="29" as="geometry">
            <mxRectangle width="93" height="29" as="alternateBounds" />
          </mxGeometry>
        </mxCell>
        <mxCell id="gUEoalpLLiEIB1-Z7VNQ-22" value="" style="endArrow=classic;html=1;rounded=0;exitX=1;exitY=1;exitDx=0;exitDy=0;entryX=0;entryY=0.5;entryDx=0;entryDy=0;" edge="1" parent="1" source="gUEoalpLLiEIB1-Z7VNQ-6" target="8ehIaY2zE8x0espiH6N3-2">
          <mxGeometry width="50" height="50" relative="1" as="geometry">
            <mxPoint x="320" y="450" as="sourcePoint" />
            <mxPoint x="370" y="400" as="targetPoint" />
          </mxGeometry>
        </mxCell>
      </root>
    </mxGraphModel>
  </diagram>
</mxfile>
